HIERARCHY
ROOT Hips
{
	OFFSET 0.000000 0.000000 0.000000
	CHANNELS 6 Xposition Yposition Zposition Zrotation Yrotation Xrotation 
	JOINT LHipJoint
	{
		OFFSET 0.000000 0.000000 0.000000
		CHANNELS 3 Zrotation Yrotation Xrotation
		JOINT LeftUpLeg
		{
			OFFSET 1.363060 -1.794630 0.839290
			CHANNELS 3 Zrotation Yrotation Xrotation
			JOINT LeftLeg
			{
				OFFSET 2.448110 -6.726130 0.000000
				CHANNELS 3 Zrotation Yrotation Xrotation
				JOINT LeftFoot
				{
					OFFSET 2.562200 -7.039590 0.000000
					CHANNELS 3 Zrotation Yrotation Xrotation
					JOINT LeftToeBase
					{
						OFFSET 0.157640 -0.433110 2.322550
						CHANNELS 3 Zrotation Yrotation Xrotation
						End Site
						{
							OFFSET 0.000000 0.000000 0.000000
						}
					}
				}
			}
		}
	}
	JOINT RHipJoint
	{
		OFFSET 0.000000 0.000000 0.000000
		CHANNELS 3 Zrotation Yrotation Xrotation
		JOINT RightUpLeg
		{
			OFFSET -1.305520 -1.794630 0.839290
			CHANNELS 3 Zrotation Yrotation Xrotation
			JOINT RightLeg
			{
				OFFSET -2.542530 -6.985550 0.000000
				CHANNELS 3 Zrotation Yrotation Xrotation
				JOINT RightFoot
				{
					OFFSET -2.568260 -7.056230 0.000000
					CHANNELS 3 Zrotation Yrotation Xrotation
					JOINT RightToeBase
					{
						OFFSET -0.164730 -0.452590 2.363150
						CHANNELS 3 Zrotation Yrotation Xrotation
						End Site
						{
							OFFSET 0.000000 0.000000 0.000000
						}
					}
				}
			}
		}
	}
	JOINT LowerBack
	{
		OFFSET 0.000000 0.000000 0.000000
		CHANNELS 3 Zrotation Yrotation Xrotation
		JOINT Spine
		{
			OFFSET 0.028270 2.035590 -0.193380
			CHANNELS 3 Zrotation Yrotation Xrotation
			JOINT Spine1
			{
				OFFSET 0.056720 2.048850 -0.042750
				CHANNELS 3 Zrotation Yrotation Xrotation
				JOINT Neck
				{
					OFFSET 0.000000 0.000000 0.000000
					CHANNELS 3 Zrotation Yrotation Xrotation
					JOINT Neck1
					{
						OFFSET -0.054170 1.746240 0.172020
						CHANNELS 3 Zrotation Yrotation Xrotation
						JOINT Head
						{
							OFFSET 0.104070 1.761360 -0.123970
							CHANNELS 3 Zrotation Yrotation Xrotation
							End Site
							{
								OFFSET 0.000000 0.000000 0.000000
							}
						}
					}
				}
				JOINT LeftShoulder
				{
					OFFSET 0.000000 0.000000 0.000000
					CHANNELS 3 Zrotation Yrotation Xrotation
					JOINT LeftArm
					{
						OFFSET 3.362410 1.200890 -0.311210
						CHANNELS 3 Zrotation Yrotation Xrotation
						JOINT LeftForeArm
						{
							OFFSET 4.983000 -0.000000 -0.000000
							CHANNELS 3 Zrotation Yrotation Xrotation
							JOINT LeftHand
							{
								OFFSET 3.483560 -0.000000 -0.000000
								CHANNELS 3 Zrotation Yrotation Xrotation
								JOINT LeftFingerBase
								{
									OFFSET 0.000000 0.000000 0.000000
									CHANNELS 3 Zrotation Yrotation Xrotation
									JOINT LeftHandIndex1
									{
										OFFSET 0.715260 -0.000000 -0.000000
										CHANNELS 3 Zrotation Yrotation Xrotation
										End Site
										{
											OFFSET 0.000000 0.000000 0.000000
										}
									}
								}
								JOINT LThumb
								{
									OFFSET 0.000000 0.000000 0.000000
									CHANNELS 3 Zrotation Yrotation Xrotation
									End Site
									{
										OFFSET 0.000000 0.000000 0.000000
									}
								}
							}
						}
					}
				}
				JOINT RightShoulder
				{
					OFFSET 0.000000 0.000000 0.000000
					CHANNELS 3 Zrotation Yrotation Xrotation
					JOINT RightArm
					{
						OFFSET -3.136600 1.374050 -0.404650
						CHANNELS 3 Zrotation Yrotation Xrotation
						JOINT RightForeArm
						{
							OFFSET -5.241900 -0.000000 -0.000000
							CHANNELS 3 Zrotation Yrotation Xrotation
							JOINT RightHand
							{
								OFFSET -3.444170 -0.000000 -0.000000
								CHANNELS 3 Zrotation Yrotation Xrotation
								JOINT RightFingerBase
								{
									OFFSET 0.000000 0.000000 0.000000
									CHANNELS 3 Zrotation Yrotation Xrotation
									JOINT RightHandIndex1
									{
										OFFSET -0.622530 -0.000000 -0.000000
										CHANNELS 3 Zrotation Yrotation Xrotation
										End Site
										{
											OFFSET 0.000000 0.000000 0.000000
										}
									}
								}
								JOINT RThumb
								{
									OFFSET 0.000000 0.000000 0.000000
									CHANNELS 3 Zrotation Yrotation Xrotation
									End Site
									{
										OFFSET 0.000000 0.000000 0.000000
									}
								}
							}
						}
					}
				}
			}
		}
	}
}
MOTION
Frames: 4
Frame Time: 0.008333
-3.330996 15.801694 -0.088427 -134.279065 74.096927 -114.178506 -10.744497 -2.350306 -2.417214 -22.398093 8.012247 -61.144925 -2.067090 2.549645 42.952654 5.545927 20.454811 -26.818533 173.789500 -0.000000 -15.467100 8.562500 -3.354336 -8.089864 14.711016 -25.785127 -31.737995 0.888738 -5.704702 64.007758 1.054123 18.337376 7.271189 3.972900 0.000000 -86.729800 1.590016 0.598899 12.977478 -0.659623 0.840257 -0.746891 -6.793506 0.905631 -1.525156 8.979880 -5.703332 -6.170971 -2.003869 -0.146023 0.019365 0.000000 0.000000 0.000000 2.043738 15.840509 2.121806 -72.472742 30.388797 16.991122 -0.300137 -83.160792 -0.007951 4.283840 3.714297 0.138257 -0.050910 0.077276 0.000000 0.000000 0.000000 0.000000 0.000000 0.000000 0.000000 4.656001 0.834659 -1.659754 65.354689 12.539795 5.436074 179.937213 80.701896 179.911595 -11.957475 2.529862 -0.319579 0.202760 -0.478379 -0.000000 0.000000 0.000000 0.000000 0.000000 0.000000 0.000000 
-3.174201 15.748749 -0.128058 -133.768559 73.780426 -114.105541 -10.821449 -2.510957 -2.458178 -21.447558 7.902513 -61.021766 -1.853605 2.716563 45.296645 5.681301 21.216985 -27.926508 173.113900 -0.000000 -16.517600 8.682257 -3.309210 -8.045091 14.140525 -25.650000 -31.645869 0.609235 -5.763377 65.519937 0.974679 19.337276 9.739375 5.045100 -0.000000 -87.563100 1.385206 0.541440 13.002983 -0.719542 0.782305 -0.762102 -6.875788 0.847005 -1.600463 9.092102 -5.612017 -6.180487 -2.027842 -0.147431 0.017020 0.000000 0.000000 0.000000 1.877996 15.500315 2.176513 -72.525011 29.643975 16.342918 -0.325880 -82.457370 -0.008806 4.575450 3.804310 0.151285 -0.056033 0.078564 0.000000 0.000000 0.000000 0.000000 0.000000 0.000000 0.000000 4.845903 0.950292 -1.596900 65.992551 12.064296 5.865506 179.937691 81.415734 179.915412 -11.498705 2.783729 -0.333285 0.190143 -0.479488 -0.000000 0.000000 0.000000 0.000000 0.000000 0.000000 0.000000 
-3.020726 15.698534 -0.166196 -133.518546 73.494443 -114.278930 -10.881538 -2.636153 -2.533520 -20.673853 7.846962 -60.845610 -1.672395 2.877024 47.559238 5.779964 21.836755 -29.006375 172.459300 -0.000000 -16.950800 8.810829 -3.231823 -7.990574 13.537353 -25.412411 -31.633341 0.337125 -5.816266 67.054951 0.875813 20.276694 12.266664 6.218300 -0.000001 -87.979100 1.144343 0.485331 13.051735 -0.786094 0.726590 -0.774000 -6.955589 0.790079 -1.683164 9.176419 -5.498545 -6.164758 -2.056406 -0.149421 0.020330 0.000000 0.000000 0.000000 1.684346 15.088667 2.229586 -72.453714 28.721697 15.804275 -0.356631 -81.632498 -0.009735 4.874905 3.929269 0.166613 -0.061418 0.079592 0.000000 0.000000 0.000000 0.000000 0.000000 0.000000 0.000000 5.036913 1.072845 -1.527600 66.660887 11.540443 6.242967 179.940813 82.221912 179.919330 -11.026507 3.054870 -0.345996 0.176763 -0.480209 -0.000000 0.000000 0.000000 0.000000 0.000000 0.000000 0.000000 
-2.870638 15.651951 -0.203263 -133.541379 73.229280 -114.703475 -10.926965 -2.724162 -2.639278 -20.084133 7.848527 -60.601450 -1.527026 3.024716 49.657510 5.847931 22.313044 -30.066863 171.833800 -0.000000 -17.075499 8.940705 -3.128547 -7.925544 12.929651 -25.067466 -31.698394 0.078497 -5.863165 68.591578 0.763339 21.093562 14.766950 7.426400 0.000001 -87.784600 0.881063 0.432150 13.118866 -0.856657 0.674259 -0.783605 -7.033586 0.735873 -1.772755 9.228205 -5.366685 -6.119465 -2.090818 -0.152160 0.030732 0.000000 0.000000 0.000000 1.447653 14.592530 2.277743 -72.247670 27.635514 15.363935 -0.392369 -80.700132 -0.010756 5.188613 4.097608 0.185042 -0.067159 0.080193 0.000000 0.000000 0.000000 0.000000 0.000000 0.000000 0.000000 5.232536 1.194543 -1.450948 67.347684 10.968466 6.562105 179.946646 83.128177 179.923260 -10.555547 3.335398 -0.357311 0.163059 -0.480230 -0.000000 0.000000 0.000000 0.000000 0.000000 0.000000 0.000000 
